<svg t="1573658645916" class="icon" viewBox="0 0 1024 1024" version="1.1" xmlns="http://www.w3.org/2000/svg" p-id="2349" width="200" height="200"><path d="M864.71452445 813.30858667l0.02616888-0.02503112-654.81614222-654.77176888c-6.58545778-6.59000889-15.68540445-10.66552889-25.73767111-10.66552889-20.09543111 0-36.38613333 16.29070222-36.38613333 36.38613333 0 10.05112889 4.07552 19.15107555 10.66439111 25.73653334L812.50076445 863.96017778c6.64462222 7.14296889 16.11889778 11.61671111 26.64334222 11.61671111 20.09543111 0 36.38613333-16.29070222 36.38613333-36.38613334 0-10.12736-4.13923555-19.28419555-10.81571555-25.8810311z" p-id="2350"></path><path d="M813.26535111 158.66083555l-0.02616889-0.0250311-654.77176889 654.81500444c-6.59000889 6.58545778-10.66552889 15.68540445-10.66552888 25.73767111 0 20.09656889 16.29070222 36.38613333 36.38613333 36.38613333 10.05112889 0 19.15107555-4.07552 25.73653333-10.66439111L863.91580445 210.87573333c7.14296889-6.64348445 11.61671111-16.11776 11.6167111-26.64220444 0-20.09543111-16.29070222-36.38613333-36.38613333-36.38613334-10.12849778 0-19.28533333 4.13809778-25.88103111 10.81457778z" p-id="2351"></path></svg>