<svg t="1574770597311" class="icon" viewBox="0 0 1024 1024" version="1.1" xmlns="http://www.w3.org/2000/svg" p-id="940" width="200" height="200"><path d="M512 882.78857422C307.19724846 882.78857422 141.21142578 716.80275154 141.21142578 512S307.19724846 141.21142578 512 141.21142578s370.78857422 165.98582268 370.78857422 370.78857422-165.98582268 370.78857422-370.78857422 370.78857422z m175.83489418-500.34731627c5.93841076-5.93841076 9.55939293-14.12183047 9.55939293-23.10186624 0-18.03249121-14.62876797-32.73367882-32.73367882-32.73367882-9.05245543 0-17.23587513 3.69340181-23.17428588 9.55939293L512 465.72384787 382.44125795 336.16510582c-5.93841076-5.93841076-14.12183047-9.55939293-23.17428588-9.55939293-18.03249121 0-32.73367882 14.62876797-32.73367882 32.73367882 0 9.05245543 3.69340181 17.23587513 9.55939293 23.10186625l129.63116169 129.55874204-129.55874205 129.55874205C330.22669506 647.42473316 326.60571289 655.60815286 326.60571289 664.66060829c0 18.10491084 14.62876797 32.73367882 32.73367882 32.73367882 9.05245543 0 17.23587513-3.69340181 23.17428588-9.55939293L512 558.27615213l129.55874205 129.55874205c5.93841076 5.93841076 14.12183047 9.55939293 23.17428588 9.55939293 18.03249121 0 32.73367882-14.62876797 32.73367882-32.73367882 0-9.05245543-3.69340181-17.23587513-9.55939293-23.10186625L558.27615213 512l129.55874205-129.55874205z" p-id="941"></path></svg>