<svg t="1577196861910" class="icon" viewBox="0 0 1024 1024" version="1.1" xmlns="http://www.w3.org/2000/svg" p-id="1107" width="200" height="200"><path d="M560.375 649.29166667c2.25-2.25 3.88125-5.0625 5.0625-7.93125 5.625-10.63125 3.88125-24.1875-5.0625-33.1875L356.75 404.60416667l201.375-201.375c11.8125-11.8125 11.8125-29.75625 0-41.56875C552.5 155.97916667 545.1875 153.16666667 537.875 153.16666667L230.75 153.16666667C168.875 153.16666667 118.25 203.79166667 118.25 265.66666667l0 506.25c0 61.875 50.625 112.5 112.5 112.5l84.9375 0c7.93125 0 15.24375-2.8125 20.8125-8.4375L383.75 828.16666667l174.43125-175.5C559.25 651.54166667 559.25 650.41666667 560.375 649.29166667zM301.0625 828.16666667L230.75 828.16666667c-30.9375 0-56.25-25.3125-56.25-56.25L174.5 265.66666667c0-30.9375 25.3125-56.25 56.25-56.25l238.5 0L294.875 383.22916667C285.875 392.22916667 284.1875 405.72916667 289.8125 416.41666667 290.9375 419.22916667 292.625 422.04166667 294.875 424.29166667 296 425.41666667 296 426.54166667 297.125 427.66666667l201.9375 201.9375L301.0625 828.16666667zM793.25 153.16666667l-86.625 0c-7.875 0-15.24375 2.8125-20.8125 8.4375L638 209.41666667 463.625 383.22916667C449.1125 399.03541667 451.8125 412.70416667 465.875 427.66666667l201.9375 201.9375L463.625 834.35416667c-11.25 11.25-11.25 29.75625 0 41.56875C469.25 881.60416667 477.125 884.41666667 484.4375 884.41666667L793.25 884.41666667c61.875 0 112.5-50.625 112.5-112.5L905.75 265.66666667C905.75 203.79166667 855.125 153.16666667 793.25 153.16666667zM849.5 771.91666667c0 30.9375-25.3125 56.25-56.25 56.25L552.5 828.16666667l174.43125-175.5c13.3875-13.05 12.9375-32.85 2.25-44.4375L525.5 404.60416667 720.6875 209.41666667 793.25 209.41666667c30.9375 0 56.25 25.3125 56.25 56.25L849.5 771.91666667z" p-id="1108"></path></svg>