<svg t="1573810676254" class="icon" viewBox="0 0 1024 1024" version="1.1" xmlns="http://www.w3.org/2000/svg" p-id="715" width="200" height="200"><path d="M519.13982157 143.32420462a24.09659445 24.09659445 0 0 0-5.82664911-0.7367948c-13.35743921 0-24.18365561 10.82782891-24.18365561 24.18365478 0 13.04305169 10.33125732 23.64516595 23.25500327 24.13690083v0.05965246c0.30955078 0 0.61910156-0.01128598 0.92865234-0.01128516 178.38509107 0 321.04447393 143.32362754 321.04447393 321.70710526 0 178.38670276-142.65938287 320.38345349-321.04447393 320.38345432s-321.04608562-141.99836325-321.04608564-320.38506601c0-0.22248963 0.00806094-0.44175503 0.00806095-0.66263216h-0.00806095c0-13.35582668-10.82782891-24.18365561-24.1836556-24.18365559s-24.18365561 10.8262164-24.18365561 24.18365559c0 0.04514309 0.00644925 0.09028538 0.00644924 0.13542848-0.00161252 0.17573483-0.00644925 0.34985715-0.00644924 0.52720368 0 204.02299018 165.39040668 369.41339685 369.41339685 369.41339602 204.02137765 0 369.41178433-165.39040668 369.41178433-369.41339602-0.00161252-202.07217508-162.2545925-366.2195419-363.58513522-369.33762168z" p-id="716"></path></svg>