<?xml version="1.0" standalone="no"?><!DOCTYPE svg PUBLIC "-//W3C//DTD SVG 1.1//EN" "http://www.w3.org/Graphics/SVG/1.1/DTD/svg11.dtd"><svg t="1573139609032" class="icon" viewBox="0 0 1024 1024" version="1.1" xmlns="http://www.w3.org/2000/svg" p-id="1604" xmlns:xlink="http://www.w3.org/1999/xlink" width="200" height="200"><defs><style type="text/css"></style></defs><path d="M572.64453125 836.31640625L572.64453125 836.31640625c21.09375-26.3671875 31.640625-36.9140625 34.27734375-36.9140625 171.38671875-31.640625 284.765625-163.4765625 284.765625-326.953125 2.63671875-187.20703125-168.75-334.86328125-379.6875-334.86328125s-382.32421875 147.65625-382.32421875 334.86328125c0 163.4765625 116.015625 295.3125 284.765625 326.953125 2.63671875 0 13.18359375 10.546875 34.27734375 36.9140625l0 0c26.3671875 34.27734375 42.1875 52.734375 60.64453125 52.734375S543.640625 870.59375 572.64453125 836.31640625M601.6484375 751.94140625c-15.8203125 2.63671875-26.3671875 15.8203125-55.37109375 52.734375l0 0c-18.45703125 21.09375-34.27734375 36.9140625-34.27734375 36.9140625l-7.91015625-7.91015625c-5.2734375-5.2734375-13.18359375-15.8203125-21.09375-26.3671875-31.640625-39.55078125-42.1875-52.734375-58.0078125-55.37109375-152.9296875-26.3671875-253.125-142.3828125-253.125-284.765625 0-158.203125 152.9296875-290.0390625 342.7734375-290.0390625s342.7734375 131.8359375 342.7734375 290.0390625C854.7734375 612.1953125 754.578125 725.57421875 601.6484375 751.94140625z" p-id="1605"></path><path d="M322.15625 477.72265625a1.23596192 1.15356445 90 1 0 73.828125 0 1.23596192 1.15356445 90 1 0-73.828125 0Z" p-id="1606"></path><path d="M475.0859375 477.72265625a1.23596192 1.15356445 90 1 0 73.828125 0 1.23596192 1.15356445 90 1 0-73.828125 0Z" p-id="1607"></path><path d="M628.015625 477.72265625a1.23596192 1.15356445 90 1 0 73.828125 0 1.23596192 1.15356445 90 1 0-73.828125 0Z" p-id="1608"></path></svg>