<svg t="1577719141291" class="icon" viewBox="0 0 1024 1024" version="1.1" xmlns="http://www.w3.org/2000/svg" p-id="1153" width="200" height="200"><path d="M512 512m-495.16088889 0a495.16088889 495.16088889 0 1 0 990.32177778 0 495.16088889 495.16088889 0 1 0-990.32177778 0Z" fill="#FE6D68" p-id="1154"></path><path d="M570.25422222 512l123.79022223-123.79022222c14.56355555-14.56355555 14.56355555-43.69066667 0-58.25422223-14.56355555-14.56355555-43.69066667-14.56355555-58.25422223 0L512 453.74577778 388.20977778 329.95555555c-14.56355555-14.56355555-43.69066667-14.56355555-58.25422223 0-14.56355555 14.56355555-14.56355555 43.69066667 0 58.25422223L453.74577778 512 329.95555555 635.79022222c-14.56355555 14.56355555-14.56355555 43.69066667 0 58.25422223 14.56355555 14.56355555 43.69066667 14.56355555 58.25422223 0L512 570.25422222l123.79022222 123.79022223c14.56355555 14.56355555 43.69066667 14.56355555 58.25422223 0 14.56355555-14.56355555 14.56355555-43.69066667 0-58.25422223L570.25422222 512z" fill="#FFFFFF" p-id="1155"></path></svg>