<svg t="1574769308247" class="icon" viewBox="0 0 1024 1024" version="1.1" xmlns="http://www.w3.org/2000/svg" p-id="1155" width="200" height="200"><path d="M510.87604714 138.29146575c-206.28436088 0-373.50846291 167.22332954-373.50846291 373.50769045s167.22487449 373.50846291 373.50846291 373.50846289 373.50769043-167.22487449 373.50769043-373.50846289S717.16040803 138.29146575 510.87604714 138.29146575zM716.59418296 431.55046653l-243.61581801 243.61581804c-7.5416851 7.5416851-17.42629051 11.31291389-27.31089593 11.31291389-9.88460541 0-19.76921081-3.77122879-27.31089592-11.31291389l-136.05623245-136.05623247c-15.08337022-15.08259773-15.08337022-39.53842163 0-54.62179183 15.08337022-15.08337022 39.53842163-15.08414268 54.62256432 0L445.66746902 593.23282432l216.30492211-216.3049221c15.08414268-15.08337022 39.53842163-15.08337022 54.62256431 0C731.67832566 392.01204491 731.67832566 416.46709633 716.59418296 431.55046653z" p-id="1156"></path></svg>