<svg t="1574847632286" class="icon" viewBox="0 0 1024 1024" version="1.1" xmlns="http://www.w3.org/2000/svg" p-id="1335" width="200" height="200"><path d="M881.08062935 757.54560534L557.75453758 182.47801845c-20.43045044-36.33805275-71.50812149-36.33805275-91.93857193 0L142.48987388 757.54560534c-20.43045044 36.33805275 5.10761261 81.76119804 45.96928597 81.76119805L835.11134338 839.30680339C875.97301675 839.30680339 901.51185226 793.88443057 881.08062935 757.54560534zM477.85191727 377.40697925c9.48600769-11.38475418 21.54204368-17.07867622 36.25153541-17.07867623 14.71644401 0 26.76552772 5.63598633 36.25771523 16.85079575 9.42884445 11.24339104 14.14481163 25.30477524 14.14481162 42.21196175 0 14.54418183-19.69041824 121.51359558-26.25260353 199.33516502l-47.43003844 0c-5.76189995-77.82002449-27.12472915-184.78866577-27.12472917-199.33516502C463.70092583 402.7403361 468.42461777 388.73688761 477.85191727 377.40697925zM549.68988609 747.44084423c-9.97344017 10.78763008-21.8433094 16.16715431-35.58488846 16.1671543-13.73539925 0-25.61222076-5.3802967-35.58566093-16.1671543-9.94717598-10.75904846-14.89565849-23.79612923-14.8956585-39.11046983 0-15.22782326 4.94771003-28.40703965 14.8956585-39.4519043 9.97344017-11.04409218 21.85026169-16.56575203 35.58566093-16.56575202 13.74157905 0 25.61222076 5.52243232 35.58488846 16.56575202 9.94717598 11.04409218 14.9018383 24.22253608 14.9018383 39.4519043C564.59172439 723.64625995 559.63783454 736.68256824 549.68988609 747.44084423z" p-id="1336"></path></svg>