<svg t="1587825981744" class="icon" viewBox="0 0 1024 1024" version="1.1" xmlns="http://www.w3.org/2000/svg" p-id="1089" width="200" height="200"><path d="M512 111.99999969C291.2 111.99999969 111.99999969 291.2 111.99999969 512S291.2 912.00000031 512 912.00000031 912.00000031 732.8 912.00000031 512 732.8 111.99999969 512 111.99999969zM485.33333375 320c0-14.93333344 11.73333375-26.66666625 26.66666625-26.66666625s26.66666625 11.73333375 26.66666625 26.66666625v223.99999969c0 14.93333344-11.73333375 26.66666625-26.66666625 26.66666719s-26.66666625-11.73333375-26.66666625-26.66666719V320zM512 709.33333344c-20.26666688 0-37.33333312-17.06666625-37.33333312-37.33333313s17.06666625-37.33333312 37.33333312-37.33333406 37.33333312 17.06666625 37.33333312 37.33333406-17.06666625 37.33333312-37.33333312 37.33333313z" p-id="1090"></path></svg>