<svg t="1577111758019" class="icon" viewBox="0 0 1024 1024" version="1.1" xmlns="http://www.w3.org/2000/svg" p-id="1130" width="200" height="200"><path d="M839.68 125.15555556L184.32 125.15555556c-20.13866667 0-36.40888889 16.27022222-36.40888889 36.40888889s16.27022222 36.40888889 36.40888889 36.40888888l655.36 0c20.13866667 0 36.40888889-16.27022222 36.40888889-36.40888888S859.81866667 125.15555556 839.68 125.15555556z" p-id="1131"></path><path d="M537.82755555 245.07733333c-3.41333333-3.41333333-7.39555555-6.03022222-11.83288888-7.96444443-8.87466667-3.64088889-18.88711111-3.64088889-27.76177778 0-4.43733333 1.82044445-8.53333333 4.55111111-11.83288889 7.96444443l-291.27111111 291.27111112c-14.22222222 14.22222222-14.22222222 37.31911111 0 51.42755555s37.31911111 14.22222222 51.42755556 0L475.59111111 358.62755556 475.59111111 853.33333333c0 20.13866667 16.27022222 36.40888889 36.40888889 36.4088889s36.40888889-16.27022222 36.40888889-36.4088889L548.40888889 358.62755556l229.14844444 229.14844444c7.05422222 7.05422222 16.384 10.69511111 25.71377778 10.69511111s18.65955555-3.52711111 25.71377778-10.69511111c14.22222222-14.22222222 14.22222222-37.31911111 0-51.42755555L537.82755555 245.07733333z" p-id="1132"></path></svg>