<svg t="1582342536413" class="icon" viewBox="0 0 1024 1024" version="1.1" xmlns="http://www.w3.org/2000/svg" p-id="1613" width="120" height="120"><path d="M897.77857168 512q0 126.06428584-73.60714248 226.73571416t-190.09285752 139.37142832q-13.56428584 2.50714248-19.86428584-3.53571416t-6.3-15.04285752l0-105.94285752q0-48.72857168-26.1-71.29285752 28.60714248-3.02142833 51.49285752-9.06428584t47.18571416-19.60714248 40.69285752-33.42857168 26.61428584-52.71428584 10.28571416-75.6q0-60.75-39.66428584-103.43571416 18.57857168-45.70714248-3.98571416-102.47142832-14.07857168-4.5-40.69285752 5.52857168t-46.22142832 22.11428584l-19.09285752 12.02142832q-46.73571416-13.05-96.42857168-13.05t-96.42857168 13.05q-8.03571416-5.52857168-21.34285752-13.56428584t-41.91428583-19.35-43.2-6.75q-22.11428584 56.76428584-3.53571417 102.47142832-39.66428584 42.68571416-39.66428583 103.43571416 0 42.68571416 10.28571415 75.34285752t26.35714249 52.71428584 40.43571415 33.62142832 47.18571416 19.60714248 51.49285752 9.06428584q-20.05714248 18.06428584-24.62142832 51.75-10.54285752 5.01428584-22.62857168 7.52142832t-28.60714247 2.50714249-32.91428585-10.8-27.9-31.37142833q-9.51428584-16.07142832-24.36428584-26.1t-24.87857167-12.02142832l-10.02857169-1.47857168q-10.54285752 0-14.59285752 2.25t-2.50714248 5.78571416 4.5 7.00714248 6.55714248 6.04285752l3.53571416 2.50714248q11.05714248 5.01428584 21.85714248 19.09285752t15.81428585 25.58571417l5.01428583 11.57142831q6.55714248 19.09285752 22.11428584 30.85714248t33.62142833 15.04285752 34.90714248 3.53571416 27.9-1.73571416l11.57142831-1.99285752q0 19.09285752 0.25714249 44.67857168t0.25714248 27.12857168q0 9.06428584-6.55714248 15.04285752t-20.05714249 3.53571416q-116.48571416-38.7-190.09285751-139.37142832t-73.60714249-226.73571416q0-104.97857167 51.75-193.62857168t140.4-140.4 193.62857169-51.75 193.62857167 51.75 140.4 140.4 51.75 193.62857168z" p-id="1614"></path></svg>