<svg t="1577719237265" class="icon" viewBox="0 0 1024 1024" version="1.1" xmlns="http://www.w3.org/2000/svg" p-id="1538" width="200" height="200"><path d="M124.3 880h775.5L512 159.89999999 124.3 880zM512 779.99999999c-19.9 0-36-16.1-36-36s16.1-36 36-36 36 16.1 36 36-16.1 36-36 36z m36-339.99999999v159.99999999c0 19.9-16.1 36-36 36s-36-16.1-36-36V440c0-19.9 16.1-36 36-36s36 16.1 36 36z" fill="#FFEB3B" p-id="1539"></path><path d="M991.7 898.9l-448-832.00000001C537.4 55.3 525.2 47.99999999 512 47.99999999s-25.4 7.3-31.7 18.9l-448 832.00000001c-6 11.2-5.7 24.6 0.8 35.5C39.6 945.29999999 51.3 952 64 952h896c12.7 0 24.4-6.7 30.9-17.50000001 6.5-10.9 6.8-24.4 0.8-35.59999999zM124.3 880L512 159.89999999 899.7 880H124.3z" fill="#FF9800" p-id="1540"></path><path d="M476 440v159.99999999c0 19.9 16.1 36 36 36s36-16.1 36-36V440c0-19.9-16.1-36-36-36s-36 16.1-36 36z" fill="#FF5722" p-id="1541"></path><path d="M512 743.99999999m-36 0a36 36 0 1 0 72 0 36 36 0 1 0-72 0Z" fill="#FF5722" p-id="1542"></path></svg>