<?xml version="1.0" standalone="no"?><!DOCTYPE svg PUBLIC "-//W3C//DTD SVG 1.1//EN" "http://www.w3.org/Graphics/SVG/1.1/DTD/svg11.dtd"><svg t="1573139601466" class="icon" viewBox="0 0 1024 1024" version="1.1" xmlns="http://www.w3.org/2000/svg" p-id="1487" xmlns:xlink="http://www.w3.org/1999/xlink" width="200" height="200"><defs><style type="text/css"></style></defs><path d="M675.6069499 471.09741919h143.30405813c11.21342843 0 20.30289093 9.09958008 20.30289092 20.31553894v327.48540188c0 11.22017432-9.25050916 20.31553894-20.30289092 20.31553894H205.08899197c-11.21342843 0-20.30289093-9.09958008-20.30289092-20.31553894V491.41380105c0-11.22017432 9.25135291-20.31553894 20.30289092-20.31553811h143.30405813c11.29437405 0 20.45129041-9.15607342 20.45129041-20.45129041 0-11.29437405-9.15691635-20.45129041-20.45129041-20.4512904H184.77935598c-22.69667395 0-40.89583493 18.23120205-40.89583575 40.72129734v368.47820296c0 22.5263518 18.30961725 40.72129733 40.89583575 40.72129734h654.4404451c22.69667395 0 40.89667868-18.23120205 40.89667869-40.72129734V470.91697947c0-22.5263518-18.31046017-40.72129733-40.89667869-40.72129734H675.6069499c-11.29437405 0-20.45129041 9.15691635-20.45129042 20.4512904s9.15691635 20.45044748 20.45129041 20.45044666zM515.83561828 144.24271466a20.77422747 20.77422747 0 0 0-8.12318005 0.08516107c-6.51186639-1.38281231-13.53048293 0.46206189-18.56763006 5.49920902L342.32722589 296.64466702c-7.9098555 7.9098555-7.89130618 20.8408384 0.09527865 28.82658033 8.04223525 8.04307818 20.89311547 8.02958725 28.82742408 0.09527948l120.30046765-120.30046765V736.99707681c0 11.26401966 9.15607342 20.4133472 20.45129041 20.4133472 11.37278924 0 20.45129041-9.13920996 20.45128958-20.4133472V206.29389334l119.27179056 119.27263349c7.9098555 7.9098555 20.8408384 7.89214912 28.82742324-0.09527948 8.04223525-8.04223525 8.02958725-20.89311547 0.09527948-28.82658033L533.82820059 149.82708475c-4.87019834-4.86935459-11.64260632-6.73446561-17.99258231-5.58437009z" p-id="1488"></path></svg>