<?xml version="1.0" standalone="no"?><!DOCTYPE svg PUBLIC "-//W3C//DTD SVG 1.1//EN" "http://www.w3.org/Graphics/SVG/1.1/DTD/svg11.dtd"><svg t="1573139624987" class="icon" viewBox="0 0 1024 1024" version="1.1" xmlns="http://www.w3.org/2000/svg" p-id="1841" xmlns:xlink="http://www.w3.org/1999/xlink" width="200" height="200"><defs><style type="text/css"></style></defs><path d="M514.47192383 289.52685547c-237.3046875 0-380.67626953 242.24853516-380.67626953 242.24853516s165.61889648 234.83276367 380.67626953 234.83276367 380.67626953-234.83276367 380.67626953-234.83276367S751.77661133 289.52685547 514.47192383 289.52685547zM759.19238281 620.76464844c-79.1015625 66.74194336-163.14697266 108.76464844-247.19238281 108.76464843s-168.09082031-39.55078125-247.19238281-108.76464843c-27.19116211-24.71923828-54.38232422-49.43847656-76.62963867-76.62963867-4.94384766-4.94384766-7.41577148-9.88769531-12.35961914-14.83154297 2.47192383-4.94384766 7.41577148-9.88769531 9.88769531-14.83154297 19.77539063-27.19116211 44.49462891-54.38232422 71.68579101-79.1015625 76.62963867-69.21386719 160.67504883-111.23657227 254.6081543-111.23657227s177.97851563 42.02270508 254.6081543 111.23657227c27.19116211 24.71923828 49.43847656 51.91040039 71.68579101 79.1015625 2.47192383 4.94384766 7.41577148 9.88769531 9.88769532 14.83154297-2.47192383 4.94384766-7.41577148 9.88769531-12.35961915 14.83154297C813.57470703 568.85424805 788.85546875 596.04541016 759.19238281 620.76464844z" p-id="1842"></path><path d="M512 383.45996094c-74.15771484 0-131.01196289 59.32617188-131.01196289 131.01196289 0 74.15771484 59.32617188 131.01196289 131.01196289 131.01196289 74.15771484 0 131.01196289-59.32617188 131.01196289-131.01196289C643.01196289 442.78613281 583.68579102 383.45996094 512 383.45996094zM512 610.87695313c-51.91040039 0-93.93310547-42.02270508-93.93310547-93.93310547 0-51.91040039 42.02270508-93.93310547 93.93310547-93.93310547 51.91040039 0 93.93310547 42.02270508 93.93310547 93.93310547C605.93310547 566.38232422 563.91040039 610.87695313 512 610.87695313z" p-id="1843"></path></svg>