<?xml version="1.0" standalone="no"?><!DOCTYPE svg PUBLIC "-//W3C//DTD SVG 1.1//EN" "http://www.w3.org/Graphics/SVG/1.1/DTD/svg11.dtd"><svg t="1573139593120" class="icon" viewBox="0 0 1024 1024" version="1.1" xmlns="http://www.w3.org/2000/svg" p-id="1368" xmlns:xlink="http://www.w3.org/1999/xlink" width="200" height="200"><defs><style type="text/css"></style></defs><path d="M512.84233524 346.28341803m-55.23914164 0a55.23914163 55.23914163 0 1 0 110.47828327 0 55.23914163 55.23914163 0 1 0-110.47828327 0Z" p-id="1369"></path><path d="M476.01652207 475.17334308h73.65162634v257.78069384h-73.65162634z" p-id="1370"></path><path d="M512.84233524 143.74102371c-203.3830437 0-368.25813336 164.87508966-368.25813337 368.25813336s164.87508966 368.25813336 368.25813337 368.25813336 368.25813336-164.87508966 368.25813336-368.25813335-164.87424673-368.25813336-368.25813336-368.25813337z m0 699.69045355c-183.04473917 0-331.43232019-148.38758103-331.4323202-331.43232018S329.79759607 180.56683689 512.84233524 180.56683689s331.43232019 148.38758103 331.43232018 331.43232018S695.88791816 843.43147726 512.84233524 843.43147726z" p-id="1371"></path></svg>